<svg xmlns="http://www.w3.org/2000/svg" xmlns:xlink="http://www.w3.org/1999/xlink" xmlns:serif="http://www.serif.com/" viewBox="0 0 48 60" version="1.1" xml:space="preserve" style="" x="0px" y="0px" fill-rule="evenodd" clip-rule="evenodd" stroke-linejoin="round" stroke-miterlimit="2"><g transform="matrix(1,0,0,1,-144,-48)"><g><path d="M179,65.696L179,62C179,60.674 178.473,59.402 177.536,58.464C176.598,57.527 175.326,57 174,57C167.852,57 156.148,57 150,57C148.674,57 147.402,57.527 146.464,58.464C145.527,59.402 145,60.674 145,62C145,67.322 145,76.678 145,82C145,83.326 145.527,84.598 146.464,85.536C147.402,86.473 148.674,87 150,87C156.148,87 167.852,87 174,87C175.326,87 176.598,86.473 177.536,85.536C178.473,84.598 179,83.326 179,82C179,82 179,78.304 179,78.304C179,78.304 186.41,82.935 186.41,82.935C187.335,83.514 188.5,83.544 189.454,83.015C190.408,82.487 191,81.482 191,80.392C191,75.862 191,68.138 191,63.608C191,62.518 190.408,61.513 189.454,60.985C188.5,60.456 187.335,60.486 186.41,61.065L179,65.696ZM177,67.5C177,67.864 177.197,68.198 177.515,68.375C177.833,68.551 178.222,68.541 178.53,68.348C178.53,68.348 183.915,64.983 187.47,62.76C187.778,62.568 188.167,62.558 188.485,62.734C188.803,62.91 189,63.245 189,63.608C189,63.609 189,80.391 189,80.391C189,80.755 188.803,81.09 188.485,81.266C188.167,81.442 187.778,81.432 187.47,81.24L178.53,75.652C178.222,75.459 177.833,75.449 177.515,75.625C177.197,75.802 177,76.136 177,76.5C177,76.5 177,79.403 177,82C177,82.796 176.684,83.559 176.121,84.121C175.559,84.684 174.796,85 174,85C167.852,85 156.148,85 150,85C149.204,85 148.441,84.684 147.879,84.121C147.316,83.559 147,82.796 147,82L147,62C147,61.204 147.316,60.441 147.879,59.879C148.441,59.316 149.204,59 150,59C156.148,59 167.852,59 174,59C174.796,59 175.559,59.316 176.121,59.879C176.684,60.441 177,61.204 177,62L177,67.5Z"/></g></g><text x="0" y="63" fill="#000000" font-size="5px" font-weight="bold" font-family="'Helvetica Neue', Helvetica, Arial-Unicode, Arial, Sans-serif">Created by Mada Creative</text><text x="0" y="68" fill="#000000" font-size="5px" font-weight="bold" font-family="'Helvetica Neue', Helvetica, Arial-Unicode, Arial, Sans-serif">from the Noun Project</text></svg>